<!DOCTYPE svg PUBLIC "-//W3C//DTD SVG 1.1//EN" "http://www.w3.org/Graphics/SVG/1.1/DTD/svg11.dtd">
<!-- Uploaded to: SVG Repo, www.svgrepo.com, Transformed by: SVG Repo Mixer Tools -->
<svg height="256px" width="256px" version="1.1" id="Layer_1" xmlns="http://www.w3.org/2000/svg" xmlns:xlink="http://www.w3.org/1999/xlink" viewBox="0 0 512.00 512.00" xml:space="preserve" fill="#000000" stroke="#000000" stroke-width="0.00512" transform="matrix(1, 0, 0, 1, 0, 0)rotate(0)">
<g id="SVGRepo_bgCarrier" stroke-width="0">
<path transform="translate(0, 0), scale(16)" d="M16,30.10307081906419C19.42083989870787,29.606061998268412,20.888179584456648,25.772652006489793,23.230096406172542,23.230096406172542C25.4002799251147,20.873986996718905,29.265155705179353,19.191446161859435,28.990165794170217,16C28.716370489359626,12.822418060843454,24.25889900772731,12.24883634155211,22.08297958328791,9.917020416712095C19.737424792575695,7.403415385139455,19.382957744737165,2.691864383025173,16,2.0791373407762315C12.531562014547507,1.4509279724043247,9.779139269073378,4.795728688524294,7.22612100188652,7.2261210018865185C4.579533400569495,9.74558834983005,1.5574852041087999,12.35041384920645,1.3767572960963363,15.999999999999996C1.1904125747319225,19.76301104707164,3.599972902062523,23.072678119622015,6.311880819380681,25.688119180619317C8.967415692694818,28.2491924760004,12.349028790502256,30.633515081093876,16,30.10307081906419" fill="#7ed0ec" strokewidth="0"/>
</g>
<g id="SVGRepo_tracerCarrier" stroke-linecap="round" stroke-linejoin="round"/>
<g id="SVGRepo_iconCarrier"> <path style="fill:#FF5800;" d="M337.236,367.165c-11.807,0-21.378,9.571-21.378,21.378v25.612l-33.011,34.43 c-9.126,8.157-20.862,12.642-33.119,12.642h-3.883c-27.408,0-49.704-22.297-49.704-49.704v-89.156 c0-30.15,16.753-57.256,43.72-70.74c19.946-9.974,43.94-8.345,62.331,3.93l15.977,31.492c5.342,10.53,18.206,14.735,28.737,9.392 c10.53-5.342,14.734-18.208,9.392-28.737l-18.312-36.095c-1.425-2.809-3.453-5.269-5.94-7.202 c-31.698-24.654-75.389-28.981-111.309-11.021c-20.253,10.127-37.252,25.661-49.156,44.923 c-11.904,19.263-18.196,41.415-18.196,64.06v89.156c0,50.982,41.477,92.459,92.459,92.459h3.883c23.192,0,45.38-8.631,62.477-24.302 c0.339-0.311,0.667-0.632,0.986-0.964l39.476-41.175c3.816-3.981,5.946-9.281,5.946-14.795v-34.205 C358.614,376.736,349.043,367.165,337.236,367.165z"/> <path style="fill:#EC2620;" d="M170.489,411.524v-89.156c0-22.645,6.293-44.795,18.197-64.058 c11.904-19.263,28.903-34.797,49.156-44.923c12.103-6.051,25.088-9.561,38.2-10.628c-18.762-1.512-37.939,1.946-55.302,10.628 c-20.253,10.127-37.252,25.661-49.156,44.923c-11.904,19.263-18.197,41.413-18.197,64.058v89.156 c0,50.982,41.477,92.459,92.459,92.459h3.883c2.162,0,4.312-0.099,6.453-0.249C208.347,500.258,170.489,460.231,170.489,411.524z"/> <path style="fill:#FDE265;" d="M256.004,8.017c-23.613,0-42.756,19.143-42.756,42.756c0,13.985,6.715,26.403,17.097,34.204 l51.315,0.001c10.383-7.801,17.099-20.218,17.099-34.205C298.76,27.16,279.617,8.017,256.004,8.017z M256.004,67.875 c-9.445,0-17.102-7.656-17.102-17.102s7.658-17.102,17.102-17.102c9.445,0,17.102,7.656,17.102,17.102 S265.449,67.875,256.004,67.875z"/> <path style="fill:#54747B;" d="M256.018,185.297c-13.426,0-26.826,2.247-39.469,6.557l20.871,74.42 c5.794-2.643,12.205-4.052,18.652-4.052c7.442,0,14.648,1.789,21.103,5.183l21.584-74.401 C285.171,187.969,270.673,185.297,256.018,185.297z"/> <g> <path style="fill:#3C6168;" d="M238.902,191.854c9.152-3.12,18.702-5.141,28.37-6.03c-3.733-0.347-7.488-0.527-11.253-0.527 c-13.426,0-26.826,2.247-39.469,6.557l20.871,74.42c5.794-2.643,12.205-4.052,18.652-4.052c0.866,0,1.727,0.03,2.586,0.078 L238.902,191.854z"/> <path style="fill:#3C6168;" d="M278.424,262.222c-3.752,0-7.488,0.491-11.1,1.411c3.42,0.87,6.725,2.129,9.852,3.773l1.502-5.176 C278.593,262.228,278.51,262.222,278.424,262.222z"/> </g> <path d="M256.004,75.891c13.851,0,25.119-11.268,25.119-25.119s-11.268-25.119-25.119-25.119c-13.851,0-25.119,11.268-25.119,25.119 S242.154,75.891,256.004,75.891z M256.004,41.687c5.01,0,9.086,4.076,9.086,9.086s-4.076,9.086-9.086,9.086 c-5.01,0-9.086-4.076-9.086-9.086S250.994,41.687,256.004,41.687z"/> <path d="M340.981,359.395v-52.869c3.245-0.414,6.474-1.372,9.554-2.934c14.454-7.333,20.247-25.058,12.914-39.513l-18.312-36.095 c-1.945-3.836-4.77-7.261-8.167-9.903c-9.683-7.531-20.469-13.358-32.094-17.388l1.582-5.455c1.17-4.035-0.974-8.29-4.914-9.75 c-12.163-4.508-24.752-7.169-37.525-7.955v-41.784h17.637c4.428,0,8.017-3.589,8.017-8.017V88.755 c10.909-9.636,17.102-23.254,17.102-37.982C306.776,22.777,283.999,0,256.003,0s-50.772,22.777-50.772,50.772 c0,14.728,6.194,28.346,17.102,37.982v38.978c0,4.427,3.588,8.017,8.017,8.017h17.637v41.807 c-11.565,0.714-22.979,2.945-34.024,6.711c-4.029,1.374-6.282,5.654-5.133,9.753l4.05,14.44 c-19.704,10.783-36.276,26.478-48.116,45.636c-12.688,20.529-19.394,44.138-19.394,68.272v19.144c0,4.427,3.588,8.017,8.017,8.017 c4.428,0,8.017-3.589,8.017-8.017v-19.144c0-21.156,5.879-41.848,17-59.843c9.725-15.734,23.086-28.805,38.937-38.165l7.547,26.913 c-23.082,16.265-36.761,42.575-36.761,71.095v89.156c0,31.827,25.894,57.72,57.72,57.72h3.883c14.21,0,27.868-5.214,38.461-14.681 c0.154-0.137,0.301-0.28,0.445-0.429l33.011-34.43c1.431-1.492,2.23-3.48,2.23-5.548v-25.614c0-1.86,0.384-3.63,1.073-5.24v9.515 c0,4.427,3.588,8.017,8.017,8.017c4.428,0,8.017-3.589,8.017-8.017v-17.093c5.549,1.625,9.616,6.75,9.616,12.817v34.205 c0,3.463-1.319,6.747-3.718,9.247l-39.475,41.174c-0.198,0.206-0.401,0.406-0.616,0.603c-15.615,14.313-35.88,22.196-57.06,22.196 h-3.883c-46.562,0-84.443-37.881-84.443-84.443v-35.808c0-4.427-3.588-8.017-8.017-8.017c-4.428,0-8.017,3.589-8.017,8.017v35.808 C145.37,466.927,190.443,512,245.846,512h3.883c25.202,0,49.314-9.38,67.891-26.406c0.467-0.428,0.918-0.87,1.359-1.33 l39.476-41.174c5.273-5.499,8.176-12.724,8.176-20.343v-34.205C366.63,373.604,355.426,361.241,340.981,359.395z M256.004,16.033 c19.156,0,34.739,15.584,34.739,34.739c0,10.173-4.31,19.581-11.909,26.188h-22.83h-22.83c-7.599-6.607-11.909-16.014-11.909-26.188 C221.265,31.618,236.849,16.033,256.004,16.033z M238.368,119.716V92.994h35.273v26.722h-9.62v-0.534 c0-4.427-3.588-8.017-8.017-8.017c-4.428,0-8.017,3.589-8.017,8.017v0.534H238.368z M327.126,230.736 c1.545,1.201,2.828,2.758,3.713,4.501l18.312,36.095c3.333,6.57,0.699,14.628-5.869,17.961c-0.75,0.38-1.521,0.673-2.3,0.901 v-17.092c0-4.427-3.588-8.017-8.017-8.017s-8.017,3.589-8.017,8.017v9.587l-15.605-30.757c-0.623-1.229-1.553-2.277-2.699-3.041 c-4.283-2.858-8.878-5.225-13.696-7.076l7.46-25.714C310.077,219.542,319.049,224.453,327.126,230.736z M256.019,193.314 c11.144,0,22.18,1.627,32.898,4.843l-16.957,58.456c-5.121-1.586-10.491-2.407-15.887-2.407c-4.444,0-8.914,0.575-13.237,1.689 l-16.451-58.661C236.059,194.629,245.995,193.314,256.019,193.314z M307.841,388.543v22.39l-30.558,31.872 c-7.618,6.713-17.392,10.406-27.555,10.406h-3.883c-22.987,0-41.687-18.7-41.687-41.687v-89.156 c0-21.316,9.355-41.116,25.387-54.485l0.156,0.555c0.633,2.254,2.219,4.12,4.343,5.106c2.124,0.987,4.571,0.995,6.703,0.022 c4.776-2.177,10.075-3.329,15.326-3.329c6.063,0,12.07,1.474,17.372,4.263c4.43,2.328,10.041-0.072,11.431-4.862l3.581-12.341 c2.623,1.085,5.163,2.353,7.575,3.833l14.99,29.547c3.115,6.139,8.11,10.701,13.926,13.373v57.8 C314.861,366.513,307.841,376.721,307.841,388.543z"/> </g>
</svg>